HIERARCHY
ROOT Hips
{
 OFFSET 0.000000 0.000000 0.000000
 CHANNELS 6 Xposition Yposition Zposition Yrotation Xrotation Zrotation
 JOINT Chest
 { 
  OFFSET 0.000000 9.630565 -1.070063
  CHANNELS 3 Yrotation Xrotation Zrotation
  JOINT Chest2
  {
   OFFSET 0.000000 10.515092 0.000000
   CHANNELS 3 Yrotation Xrotation Zrotation
   JOINT Chest3
   {
    OFFSET 0.000000 9.604626 -0.030425
    CHANNELS 3 Yrotation Xrotation Zrotation
    JOINT Chest4
    {
     OFFSET 0.000000 9.593896 -0.030455
     CHANNELS 3 Yrotation Xrotation Zrotation
     JOINT Neck
     {
      OFFSET 0.000000 13.488791 0.000000
      CHANNELS 3 Yrotation Xrotation Zrotation
      JOINT Head
      {
       OFFSET 0.000000 10.704499 -0.075716
       CHANNELS 3 Yrotation Xrotation Zrotation
       End Site
       {
        OFFSET 0.000000 21.416259 -0.029166
       }
      }
     }
     JOINT RightCollar
     {
      OFFSET -3.054452 7.579305 0.000000
      CHANNELS 3 Yrotation Xrotation Zrotation
      JOINT RightShoulder
      {
       OFFSET -14.776674 0.000000 0.000000
       CHANNELS 3 Yrotation Xrotation Zrotation
       JOINT RightElbow
       {
        OFFSET -30.982767 0.000000 0.000000
        CHANNELS 3 Yrotation Xrotation Zrotation
        JOINT RightWrist
        {
         OFFSET -25.330466 0.000000 0.000000
         CHANNELS 3 Yrotation Xrotation Zrotation
         JOINT RightFinger0
         {
          OFFSET -2.833226 0.000000 2.791865
          CHANNELS 3 Yrotation Xrotation Zrotation
          JOINT RightFinger01
          {
           OFFSET -3.663730 0.000000 0.000000
           CHANNELS 3 Yrotation Xrotation Zrotation
           JOINT RightFinger02
           {
            OFFSET -3.215815 0.000000 0.000000
            CHANNELS 3 Yrotation Xrotation Zrotation
            End Site
            {
             OFFSET -3.215815 0.000000 0.000000
            }
           }
          }
         }
         JOINT RightFinger1
         {
          OFFSET -9.466533 0.000000 1.251169
          CHANNELS 3 Yrotation Xrotation Zrotation
          JOINT RightFinger11
          {
           OFFSET -4.280860 0.000000 0.000000
           CHANNELS 3 Yrotation Xrotation Zrotation
           JOINT RightFinger12
           {
            OFFSET -2.336894 0.000000 0.000000
            CHANNELS 3 Yrotation Xrotation Zrotation
            End Site
            {
             OFFSET -2.099069 0.000000 0.000000
            }
           }
          }
         }
         JOINT RightFinger2
         {
          OFFSET -9.482001 0.000000 0.000000
          CHANNELS 3 Yrotation Xrotation Zrotation
          JOINT RightFinger21
          {
           OFFSET -4.684129 0.000000 0.000000
           CHANNELS 3 Yrotation Xrotation Zrotation
           JOINT RightFinger22
           {
            OFFSET -2.771185 0.000000 0.000000
            CHANNELS 3 Yrotation Xrotation Zrotation
            End Site
            {
             OFFSET -2.202471 0.000000 0.000000
            }
           }
          }
         }
         JOINT RightFinger3
         {
          OFFSET -9.119393 0.000000 -1.261509
          CHANNELS 3 Yrotation Xrotation Zrotation
          JOINT RightFinger31
          {
           OFFSET -4.446304 0.000000 0.000000
           CHANNELS 3 Yrotation Xrotation Zrotation
           JOINT RightFinger32
           {
            OFFSET -2.636761 0.000000 0.000000
            CHANNELS 3 Yrotation Xrotation Zrotation
            End Site
            {
             OFFSET -2.223152 0.000000 0.000000
            }
           }
          }
         }
         JOINT RightFinger4
         {
          OFFSET -8.375151 0.000000 -2.254173
          CHANNELS 3 Yrotation Xrotation Zrotation
          JOINT RightFinger41
          {
           OFFSET -3.712147 0.000000 0.000000
           CHANNELS 3 Yrotation Xrotation Zrotation
           JOINT RightFinger42
           {
            OFFSET -2.016347 0.000000 0.000000
            CHANNELS 3 Yrotation Xrotation Zrotation
            End Site
            {
             OFFSET -2.140430 0.000000 0.000000
            }
           }
          }
         }
        }
       }
      }
     }
     JOINT LeftCollar
     {
      OFFSET 3.054452 7.579305 0.000000
      CHANNELS 3 Yrotation Xrotation Zrotation
      JOINT LeftShoulder
      {
       OFFSET 14.776674 0.000000 0.000000
       CHANNELS 3 Yrotation Xrotation Zrotation
       JOINT LeftElbow
       {
        OFFSET 30.982767 0.000000 0.000000
        CHANNELS 3 Yrotation Xrotation Zrotation
        JOINT LeftWrist
        {
         OFFSET 25.330466 0.000000 0.000000
         CHANNELS 3 Yrotation Xrotation Zrotation
         JOINT LeftFinger0
         {
          OFFSET 2.833226 0.000000 2.791865
          CHANNELS 3 Yrotation Xrotation Zrotation
          JOINT LeftFinger01
          {
           OFFSET 3.663730 0.000000 0.000000
           CHANNELS 3 Yrotation Xrotation Zrotation
           JOINT LeftFinger02
           {
            OFFSET 3.215815 0.000000 0.000000
            CHANNELS 3 Yrotation Xrotation Zrotation
            End Site
            {
             OFFSET 3.215815 0.000000 0.000000
            }
           }
          }
         }
         JOINT LeftFinger1
         {
          OFFSET 9.466533 0.000000 1.251169
          CHANNELS 3 Yrotation Xrotation Zrotation
          JOINT LeftFinger11
          {
           OFFSET 4.280860 0.000000 0.000000
           CHANNELS 3 Yrotation Xrotation Zrotation
           JOINT LeftFinger12
           {
            OFFSET 2.336894 0.000000 0.000000
            CHANNELS 3 Yrotation Xrotation Zrotation
            End Site
            {
             OFFSET 2.099069 0.000000 0.000000
            }
           }
          }
         }
         JOINT LeftFinger2
         {
          OFFSET 9.482001 0.000000 0.000000
          CHANNELS 3 Yrotation Xrotation Zrotation
          JOINT LeftFinger21
          {
           OFFSET 4.684129 0.000000 0.000000
           CHANNELS 3 Yrotation Xrotation Zrotation
           JOINT LeftFinger22
           {
            OFFSET 2.771185 0.000000 0.000000
            CHANNELS 3 Yrotation Xrotation Zrotation
            End Site
            {
             OFFSET 2.202471 0.000000 0.000000
            }
           }
          }
         }
         JOINT LeftFinger3
         {
          OFFSET 9.119393 0.000000 -1.261509
          CHANNELS 3 Yrotation Xrotation Zrotation
          JOINT LeftFinger31
          {
           OFFSET 4.446304 0.000000 0.000000
           CHANNELS 3 Yrotation Xrotation Zrotation
           JOINT LeftFinger32
           {
            OFFSET 2.636761 0.000000 0.000000
            CHANNELS 3 Yrotation Xrotation Zrotation
            End Site
            {
             OFFSET 2.223152 0.000000 0.000000
            }
           }
          }
         }
         JOINT LeftFinger4
         {
          OFFSET 8.375151 0.000000 -2.254173
          CHANNELS 3 Yrotation Xrotation Zrotation
          JOINT LeftFinger41
          {
           OFFSET 3.712147 0.000000 0.000000
           CHANNELS 3 Yrotation Xrotation Zrotation
           JOINT LeftFinger42
           {
            OFFSET 2.016347 0.000000 0.000000
            CHANNELS 3 Yrotation Xrotation Zrotation
            End Site
            {
             OFFSET 2.140430 0.000000 0.000000
            }
           }
          }
         }
        }
       }
      }
     }
    }
   }
  }
 }
 JOINT RightHip
 {
  OFFSET -8.040601 0.075541 -0.008393
  CHANNELS 3 Yrotation Xrotation Zrotation
  JOINT RightKnee
  {
   OFFSET 0.000000 -40.488015 -0.007192
   CHANNELS 3 Yrotation Xrotation Zrotation
   JOINT RightAnkle
   {
    OFFSET 0.000000 -39.536317 -0.012122
    CHANNELS 3 Yrotation Xrotation Zrotation
    JOINT RightToe
    {
     OFFSET 0.000000 -7.815405 17.988983
     CHANNELS 3 Yrotation Xrotation Zrotation
     End Site
     {
      OFFSET 0.000000 -2.689051 7.496003
     }
    }
   }
  }
 }
 JOINT LeftHip
 {
  OFFSET 8.040601 0.073397 -0.008155
  CHANNELS 3 Yrotation Xrotation Zrotation
  JOINT LeftKnee
  {
   OFFSET 0.000000 -40.488015 -0.007192
   CHANNELS 3 Yrotation Xrotation Zrotation
   JOINT LeftAnkle
   {
    OFFSET 0.000000 -39.536317 -0.012122
    CHANNELS 3 Yrotation Xrotation Zrotation
    JOINT LeftToe
    {
     OFFSET 0.000000 -7.815405 17.988983
     CHANNELS 3 Yrotation Xrotation Zrotation
     End Site
     {
      OFFSET 0.000000 -2.689051 7.496003
     }
    }
   }
  }
 }
}
MOTION
Frames: 4
Frame Time: 0.016667
0.000000 125.000000 0.000000 73.167251 12.111623 -0.566950 -1.027105 -6.848188 0.719632 -0.476254 -8.871479 0.307313 -0.471249 -3.051246 0.258900 -0.332539 3.548016 0.191958 0.196098 20.308987 2.547636 -0.406508 1.716838 4.578959 -3.246586 -15.229051 8.168600 35.028462 -22.263493 65.642096 99.179792 -6.647582 33.894528 -51.822207 41.823718 -56.408155 49.142170 62.685211 17.468164 0.000004 0.000010 3.921736 -0.000001 0.000014 -8.215770 -0.115398 -3.723416 12.285708 -0.000002 -1.560246 -0.000006 0.000000 -1.560238 0.000000 -3.293786 2.260113 6.350692 -0.000008 2.795708 0.000008 -0.000005 2.795697 0.000000 -6.702234 1.918356 -8.313801 -0.000005 1.939817 0.000004 0.000015 1.939809 -0.000012 -11.268799 2.292379 -5.453187 0.000004 2.913478 -0.000002 0.000001 2.913481 0.000007 0.644156 -11.977656 -8.995703 1.885496 -17.216934 -73.214902 -108.072284 6.336594 -27.363972 17.564962 31.739040 36.416434 -99.605099 45.746640 -82.255068 0.246373 0.035485 -12.174061 0.240302 -0.064881 -8.134090 9.258636 -0.014263 -28.318698 0.904408 0.810217 -109.989701 1.356495 0.468388 -69.983024 6.202933 1.005231 -53.436995 -0.133883 -0.120023 -109.999803 -0.200884 -0.069415 -69.999585 5.296573 1.406625 -39.782751 -0.789949 -0.707739 -109.992223 -1.184854 -0.409206 -69.987037 4.608152 1.614010 -33.776236 -2.235621 -1.337455 -94.925934 -3.064088 -0.656758 -56.658713 0.000000 -0.000000 0.000000 0.000000 -0.000000 0.000000 0.000000 -0.000000 0.000000 0.000000 -0.000000 0.000000 0.000000 -0.000000 0.000000 0.000000 -0.000000 0.000000 0.000000 -0.000000 0.000000 0.000000 -0.000000 0.000000
0.000000 125.000000 0.000000 73.204638 12.099268 -0.570291 -1.009714 -6.859829 0.705125 -0.468096 -8.876597 0.301043 -0.463171 -3.056357 0.253459 -0.326919 3.544192 0.187910 0.186068 20.367830 2.573903 -0.430654 1.827125 4.628737 -3.276922 -15.237745 8.178886 34.829667 -22.286218 65.701347 99.215150 -6.742186 34.107563 -51.723269 41.835483 -56.502207 49.218261 62.675400 17.697021 0.000001 -0.000011 3.905107 -0.000007 -0.000007 -8.265275 -0.148894 -3.719869 12.361658 -0.000001 -1.550716 0.000004 0.000003 -1.550713 -0.000004 -3.214013 2.209333 6.525841 0.000004 2.768518 -0.000001 -0.000010 2.768533 -0.000008 -6.694946 1.928348 -8.165390 -0.000000 1.948941 0.000013 -0.000008 1.948952 -0.000001 -11.148182 2.314105 -5.339354 0.000014 2.911781 -0.000006 -0.000001 2.911783 0.000005 0.628507 -11.982147 -8.990215 2.187704 -17.248442 -73.360683 -108.320037 6.471766 -27.560815 17.394487 31.998130 36.268540 -99.618625 45.784292 -82.366062 0.239789 0.034539 -12.133884 0.233810 -0.063285 -8.059736 9.258311 -0.013093 -28.316292 0.903802 0.809672 -109.989777 1.355595 0.468089 -69.982988 6.203325 1.005706 -53.437254 -0.133571 -0.119747 -109.999775 -0.200390 -0.069252 -69.999641 5.297861 1.409294 -39.681160 -0.789235 -0.707122 -109.992264 -1.183810 -0.408837 -69.987057 4.604282 1.620527 -33.788772 -2.237345 -1.337697 -94.905309 -3.066716 -0.656840 -56.627551 0.000000 -0.000000 -0.000000 0.000000 -0.000000 -0.000000 0.000000 -0.000000 -0.000000 -0.000000 -0.000000 0.000000 0.000000 -0.000000 -0.000000 0.000000 -0.000000 -0.000000 0.000000 -0.000000 -0.000000 -0.000000 -0.000000 0.000000
0.000000 125.000000 0.000000 73.240124 12.077915 -0.570457 -0.997243 -6.868726 0.694283 -0.462231 -8.880512 0.296350 -0.457366 -3.060267 0.249362 -0.322895 3.541265 0.184860 0.182745 20.439552 2.587431 -0.438328 1.960745 4.653062 -3.301873 -15.246346 8.188371 34.629800 -22.336161 65.766334 99.124012 -6.872102 34.299002 -51.578866 41.758181 -56.573822 49.724930 62.616712 18.700195 0.000000 0.000025 3.894551 -0.000020 0.000002 -8.319661 -0.148823 -3.744605 12.473084 -0.000001 -1.556024 0.000001 -0.000003 -1.556029 0.000000 -3.174681 2.187761 6.627121 0.000007 2.759942 0.000012 -0.000008 2.759949 -0.000009 -6.553306 1.924664 -7.779054 -0.000003 1.926735 -0.000006 -0.000008 1.926735 0.000007 -11.119671 2.346882 -5.096198 -0.000003 2.916185 -0.000002 -0.000009 2.916173 0.000006 0.607558 -11.989658 -8.986824 2.632246 -17.330606 -73.558653 -108.497003 6.491092 -27.872383 17.333605 32.345958 36.026154 -99.466552 45.749632 -82.428731 0.207380 0.029838 -11.949351 0.202159 -0.055234 -7.746183 9.257976 -0.012715 -28.313973 0.903240 0.809168 -109.989812 1.354725 0.467793 -69.983051 6.200344 1.002099 -53.437168 -0.133573 -0.119738 -109.999766 -0.200397 -0.069253 -69.999733 5.295342 1.408461 -39.670834 -0.787784 -0.705828 -109.992246 -1.181634 -0.408084 -69.987150 4.598617 1.628576 -33.803050 -2.243310 -1.340159 -94.873473 -3.074534 -0.657901 -56.590447 -0.000000 0.000000 -0.000000 -0.000000 0.000000 -0.000000 -0.000000 0.000000 -0.000000 -0.000000 0.000000 -0.000000 -0.000000 0.000000 -0.000000 -0.000000 0.000000 -0.000000 -0.000000 0.000000 -0.000000 -0.000000 0.000000 -0.000000
0.000000 125.000000 0.000000 73.276527 12.055915 -0.572837 -0.983899 -6.872547 0.685737 -0.456062 -8.882175 0.292710 -0.451260 -3.061925 0.246349 -0.318557 3.540027 0.182627 0.178210 20.499474 2.595251 -0.446877 2.072354 4.667559 -3.326431 -15.251262 8.197327 34.482479 -22.364372 65.832579 99.008074 -6.941310 34.402402 -51.401818 41.647392 -56.526260 49.908147 62.654054 18.843930 -0.000034 0.000072 4.039972 -0.000113 0.000162 -7.954237 -0.165962 -3.851941 12.542334 -0.000013 -1.652812 -0.000002 -0.000007 -1.652817 0.000003 -3.086038 2.166418 6.825062 0.001810 2.765754 0.018974 0.001737 2.765747 0.012034 -6.519540 1.915690 -7.701790 0.000001 1.913625 -0.000002 0.000002 1.913630 0.000002 -11.073853 2.361233 -5.014089 -0.000004 2.917849 0.000003 -0.000000 2.917856 0.000015 0.575676 -11.998720 -8.975674 2.938870 -17.389488 -73.688080 -108.605425 6.539109 -28.093134 17.313318 32.594281 35.812885 -99.325571 45.702849 -82.371466 0.191936 0.027511 -11.855090 0.186891 -0.051257 -7.589877 9.261904 -0.014091 -28.256896 0.903008 0.808977 -109.989842 1.354392 0.467664 -69.983123 6.202967 0.994497 -53.378600 -0.123621 -0.110828 -109.999805 -0.185476 -0.064094 -69.999657 5.294192 1.410121 -39.668518 -0.787389 -0.705486 -109.992320 -1.181020 -0.407893 -69.987260 4.599954 1.624431 -33.733420 -2.239619 -1.338571 -94.886129 -3.069400 -0.657413 -56.601681 -0.000000 -0.000000 -0.000000 -0.000000 -0.000000 -0.000000 -0.000000 -0.000000 -0.000000 -0.000000 -0.000000 0.000000 -0.000000 -0.000000 -0.000000 -0.000000 -0.000000 -0.000000 -0.000000 -0.000000 -0.000000 -0.000000 -0.000000 0.000000
